<svg xmlns="http://www.w3.org/2000/svg" height="48" viewBox="0 -960 960 960" width="48"><path d="M775-485q-2-123-88-209t-209-88v-73q76 1 142.5 31T737-744q50 50 80 116.5T848-485h-73Zm-171 0q-3-51-39-86.5T478-610v-73q81 3 138.5 60T677-485h-73Zm206.898 381Q681-104 554.5-166 428-228 328-328T166-555q-62-127-62-256.898 0-20.388 12.357-32.745Q128.714-857 149-857h159q13.243 0 24.648 10T347-822l29 141q2 14-1 25.5t-9 17.5L262-532q53 89 122.5 158T536-259l103-104q9-10 19.977-14 10.976-4 22.023-1l139 31q14.875 3.375 25.438 15.688Q856-319 856-304v155q0 20.286-12.357 32.643T810.898-104ZM226-599l77-78-23.01-107H179q0 39 11 83t36 102Zm379 376q40 19 86.5 30.5T783-178v.5V-281l-103-22-75 80ZM226-599Zm379 376Z"/></svg>