<svg xmlns="http://www.w3.org/2000/svg" height="48" viewBox="0 -960 960 960" width="48"><path d="M137-271v93h686v-93H137Zm0-465h101q-2.5-9-4.75-21.5T231-781q0-52.333 37.2-89.667Q305.4-908 357.4-908q33.267 0 61.933 17Q448-874 465-847l15.5 24 15.5-24q18-27 45.869-44t60.025-17q53.939 0 91.023 36.875Q730-834.25 730-780.639q0 9.349-1.5 19.994T724-736h99q28.725 0 50.862 22.138Q896-691.725 896-663v485q0 28.725-22.138 50.863Q851.725-105 823-105H137q-28.725 0-50.862-22.137Q64-149.275 64-178v-485q0-28.725 22.138-50.862Q108.275-736 137-736Zm0 346h686v-273H588l101 142-58 43-151-209-152 209-58-43 101-142H137v273Zm221-337q21.575 0 37.788-15.5Q412-758 412-780.5T395.788-819Q379.575-835 358-835q-21.575 0-37.788 16.213Q304-802.575 304-781q0 23 16.212 38.5Q336.425-727 358-727Zm243.5 0q23.45 0 39.475-15.5Q657-758 657-780.5T640.763-819Q624.525-835 602-835q-22 0-37.5 16.213Q549-802.575 549-781q0 23 15.5 38.5t37 15.5Z"/></svg>